<?xml version="1.0" standalone="no"?>
<!DOCTYPE svg PUBLIC "-//W3C//DTD SVG 20010904//EN"
 "http://www.w3.org/TR/2001/REC-SVG-20010904/DTD/svg10.dtd">
<svg version="1.0" xmlns="http://www.w3.org/2000/svg"
 width="641.000000pt" height="631.000000pt" viewBox="0 0 641.000000 631.000000"
 preserveAspectRatio="xMidYMid meet">
<metadata>
Created by potrace 1.16, written by Peter Selinger 2001-2019
</metadata>
<g transform="translate(0.000000,631.000000) scale(0.100000,-0.100000)"
fill="#000000" stroke="none">
<path d="M2905 6013 c-283 -12 -682 -98 -915 -198 -223 -95 -451 -251 -574
-393 l-30 -34 41 -77 c22 -42 91 -175 153 -296 62 -121 125 -242 140 -270 15
-27 71 -135 125 -240 151 -294 223 -433 270 -520 23 -44 79 -150 123 -235 44
-85 104 -202 134 -260 30 -58 101 -195 158 -305 56 -110 119 -231 140 -270 20
-38 79 -151 130 -250 51 -99 105 -202 120 -230 15 -27 78 -149 141 -270 62
-121 126 -246 143 -278 16 -31 33 -54 37 -50 4 5 27 44 50 88 22 44 65 125 94
180 29 55 100 190 157 300 58 110 148 281 200 380 92 174 155 294 260 495 79
149 157 298 201 380 22 41 89 170 150 285 60 116 150 287 199 380 160 302 184
348 253 480 37 72 82 157 100 190 18 33 62 116 98 185 36 69 77 145 91 170 14
25 26 55 26 66 0 24 -128 151 -228 227 -225 171 -536 289 -903 342 -120 17
-454 39 -475 31 -12 -4 -14 -87 -14 -476 l0 -470 -245 0 -245 0 -2 473 c-3
464 -3 472 -23 472 -11 0 -47 -1 -80 -2z m-265 -634 l0 -272 -70 7 c-146 15
-375 83 -489 147 -67 37 -161 106 -161 118 0 14 111 87 205 134 136 67 364
131 488 136 l27 1 0 -271z m1333 260 c160 -24 285 -63 419 -130 84 -41 198
-116 198 -130 0 -25 -144 -115 -268 -168 -118 -51 -327 -101 -419 -101 l-33 0
0 270 c0 238 2 270 16 270 8 0 48 -5 87 -11z m-1692 -818 c600 -152 1250 -149
1953 10 71 16 131 27 134 25 2 -3 -42 -94 -98 -203 -57 -109 -141 -272 -188
-363 -214 -417 -407 -792 -502 -975 -134 -258 -294 -571 -314 -612 -11 -24
-25 -43 -31 -43 -6 0 -20 19 -31 43 -11 23 -136 272 -278 552 -677 1337 -806
1593 -806 1599 0 8 -9 10 161 -33z"/>
<path d="M2350 4675 c0 -17 886 -1763 891 -1757 7 8 195 378 599 1177 150 297
277 546 283 553 5 7 7 15 4 18 -3 3 -74 -6 -158 -21 -439 -74 -905 -85 -1284
-29 -102 15 -298 52 -322 61 -7 3 -13 2 -13 -2z"/>
<path d="M527 1570 c-109 -35 -215 -140 -253 -255 -12 -35 -14 -104 -12 -371
l3 -329 34 -67 c40 -80 100 -139 179 -176 l57 -27 415 0 415 0 3 178 2 177
-390 0 -390 0 0 265 0 265 388 2 387 3 3 178 2 177 -392 -1 c-354 0 -399 -2
-451 -19z"/>
<path d="M1864 1581 c-103 -26 -215 -119 -262 -218 l-27 -58 0 -345 0 -345 26
-55 c39 -82 99 -144 177 -182 l67 -33 392 -3 c426 -3 470 1 550 51 55 35 111
101 142 166 l26 56 0 345 0 345 -27 58 c-38 81 -127 167 -203 198 -60 24 -63
24 -445 26 -212 1 -399 -2 -416 -6z m766 -616 l0 -265 -365 0 -365 0 0 265 0
265 365 0 365 0 0 -265z"/>
<path d="M3212 968 l3 -623 163 -3 c149 -2 162 -1 162 15 0 10 0 210 0 446 l0
427 365 0 365 0 2 -442 3 -443 165 0 165 0 0 475 0 475 -28 57 c-35 72 -117
162 -171 190 -90 46 -111 48 -669 48 l-527 0 2 -622z"/>
<path d="M5149 1576 c-105 -28 -207 -114 -256 -214 l-28 -57 -3 -300 c-4 -361
2 -409 62 -498 48 -72 120 -130 185 -149 36 -10 166 -13 591 -13 l545 0 3 177
2 178 -527 2 -528 3 -3 263 -2 262 338 0 339 0 -1 -62 -1 -63 -295 -5 -295 -5
0 -145 0 -145 305 -3 c342 -3 414 4 497 45 100 49 163 171 171 327 4 82 2 94
-29 170 -44 104 -116 182 -204 217 -59 24 -64 24 -440 26 -278 1 -392 -1 -426
-11z"/>
</g>
</svg>
